<?xml version="1.0" standalone="no"?><!DOCTYPE svg PUBLIC "-//W3C//DTD SVG 1.1//EN" "http://www.w3.org/Graphics/SVG/1.1/DTD/svg11.dtd"><svg t="1734147910265" class="icon" viewBox="0 0 1148 1024" version="1.1" xmlns="http://www.w3.org/2000/svg" p-id="3519" width="35.875" height="32" xmlns:xlink="http://www.w3.org/1999/xlink"><path d="M15.99488 1023.44704c8.58112 2.1504 17.34656-2.82624 19.57888-11.32544 32.95232-122.9824 166.912-154.84928 246.96832-173.91616 20.0704-4.77184 35.90144-8.54016 46.20288-12.98432 91.19744-39.58784 120.9344-103.26016 129.82272-149.72928 1.08544-5.59104-0.9216-11.3664-5.28384-15.13472-47.49312-41.00096-87.552-102.52288-112.82432-173.32224-0.69632-2.00704-1.82272-3.87072-3.29728-5.46816-33.44384-36.352-52.6336-74.79296-52.6336-105.41056 0-17.87904 6.7584-29.88032 21.95456-38.95296 4.64896-2.78528 7.55712-7.68 7.7824-13.04576 7.0656-163.00032 123.16672-291.328 265.56416-292.16768 0.16384 0 3.25632 0.22528 3.42016 0.22528 143.11424 1.98656 258.4576 133.05856 262.59456 298.37312 0.12288 4.56704 2.17088 8.86784 5.69344 11.81696 10.01472 8.47872 14.68416 19.23072 14.68416 33.83296 0 25.64096-13.66016 57.15968-38.44096 88.69888-1.18784 1.49504-2.08896 3.23584-2.68288 5.05856-25.6 81.16224-71.55712 152.80128-126.01344 196.64896-4.608 3.70688-6.77888 9.66656-5.69344 15.4624 8.88832 46.42816 38.62528 110.08 129.82272 149.72928 10.79296 4.66944 27.52512 8.31488 48.7424 12.9024 79.2576 17.16224 211.90656 45.91616 244.44928 167.424 1.92512 7.12704 8.37632 11.83744 15.42144 11.83744 1.37216 0 2.74432-0.18432 4.15744-0.55296 8.54016-2.29376 13.59872-11.07968 11.32544-19.61984-37.60128-140.3904-187.86304-172.93312-268.57472-190.40256-18.71872-4.05504-34.87744-7.55712-42.74176-11.01824-59.51488-25.86624-96.19456-65.24928-109.1584-117.28896 55.25504-47.45216 101.49888-120.66816 127.93856-202.79296 28.0576-36.47488 43.47904-74.05568 43.47904-106.14784 0-21.4016-6.90176-39.26016-20.60288-53.20704-7.61856-179.32288-135.5776-320.55296-294.4-322.80576l-4.77184-0.06144c-155.93472 0.83968-284.44672 138.3424-295.69024 314.55232-20.02944 14.72512-30.208 35.36896-30.208 61.56288 0 37.84704 21.4016 83.12832 58.88 124.66176 25.88672 71.12704 66.00704 133.632 113.78688 177.37728-12.9024 52.224-49.60256 91.7504-109.24032 117.63712-7.72096 3.35872-23.08096 7.04512-40.8576 11.264-81.3056 19.33312-232.61184 55.33696-270.49984 196.7104-2.27328 8.54016 2.78528 17.28512 11.32544 19.57888z" fill="#ffffff" p-id="3520"></path></svg>